<?xml version="1.0" standalone="no"?>
<!DOCTYPE svg PUBLIC "-//W3C//DTD SVG 20010904//EN"
 "http://www.w3.org/TR/2001/REC-SVG-20010904/DTD/svg10.dtd">
<svg version="1.0" xmlns="http://www.w3.org/2000/svg"
 width="1287.000000pt" height="329.000000pt" viewBox="0 0 1287.000000 329.000000"
 preserveAspectRatio="xMidYMid meet">

<g transform="translate(0.000000,329.000000) scale(0.100000,-0.100000)"
fill="#000000" stroke="none">
<path d="M730 2995 c0 -2 10 -24 23 -47 20 -39 22 -57 22 -183 0 -112 4 -146
17 -171 9 -17 89 -118 178 -224 146 -175 161 -197 156 -223 -3 -16 -6 -33 -6
-38 0 -5 -103 -9 -230 -9 -126 0 -230 -1 -230 -3 0 -2 -9 -52 -20 -112 -11
-60 -20 -110 -20 -113 0 -2 127 -2 283 0 l282 3 47 28 c62 36 96 94 114 197
15 86 11 125 -17 180 -13 27 -172 224 -319 395 -14 16 -15 28 -8 63 l9 42 228
0 228 0 19 110 20 110 -388 0 c-213 0 -388 -2 -388 -5z"/>
<path d="M1620 2992 c0 -4 6 -16 13 -27 20 -31 37 -97 37 -149 0 -26 -27 -198
-60 -383 -33 -186 -60 -358 -60 -383 0 -64 43 -130 102 -159 42 -20 59 -21
296 -21 151 0 252 4 252 9 0 6 36 211 80 458 44 246 80 462 80 479 0 66 -59
149 -123 173 -33 13 -617 15 -617 3z m504 -239 c-2 -10 -27 -148 -54 -308 -28
-159 -53 -302 -56 -317 l-6 -28 -114 0 c-113 0 -114 0 -109 23 2 12 27 153 55
312 28 160 53 300 55 313 5 21 9 22 119 22 104 0 114 -2 110 -17z"/>
<path d="M2515 2983 c28 -64 44 -124 45 -163 0 -25 -27 -198 -60 -385 -33
-187 -60 -360 -60 -386 0 -63 43 -129 102 -158 42 -20 59 -21 295 -21 l250 0
16 93 c28 154 53 137 -209 137 l-226 0 6 28 c3 15 28 155 56 312 28 157 53
297 56 313 l6 27 109 0 c105 0 109 -1 109 -21 0 -12 -16 -111 -35 -220 -19
-110 -35 -203 -35 -209 0 -6 44 -10 113 -10 l113 0 44 247 c49 279 48 308 -13
372 -57 60 -66 61 -393 61 -278 0 -296 -1 -289 -17z"/>
<path d="M3405 2983 c28 -63 44 -124 45 -161 0 -34 -127 -790 -156 -924 l-6
-28 115 0 115 0 6 28 c3 15 46 259 96 542 49 283 92 525 95 538 l5 22 -161 0
c-150 0 -161 -1 -154 -17z"/>
<path d="M3835 2983 c28 -63 44 -124 45 -161 0 -34 -127 -790 -156 -924 l-6
-28 115 0 115 0 6 28 c3 15 15 81 26 147 12 66 23 128 26 138 5 15 19 17 115
17 81 0 109 -3 109 -12 0 -7 -11 -78 -25 -158 -14 -80 -25 -148 -25 -152 0 -5
52 -8 115 -8 64 0 115 4 115 9 0 5 34 201 75 435 41 234 75 445 75 468 0 54
-28 114 -71 155 -64 60 -80 63 -385 63 -259 0 -276 -1 -269 -17z m494 -230 c0
-16 -12 -95 -27 -178 l-27 -150 -113 -3 c-78 -2 -112 1 -112 9 0 10 43 260 56
322 l6 27 109 0 109 0 -1 -27z"/>
<path d="M4715 2983 c28 -64 44 -124 45 -163 0 -25 -27 -198 -60 -385 -33
-187 -60 -359 -60 -383 0 -45 26 -106 57 -134 48 -43 81 -48 341 -48 l249 0
16 93 c28 154 53 137 -209 137 l-226 0 6 28 c3 15 37 207 76 427 39 220 72
410 75 423 l5 22 -161 0 c-150 0 -161 -1 -154 -17z"/>
<path d="M6285 2983 c28 -64 44 -124 45 -163 0 -25 -27 -198 -60 -385 -33
-187 -60 -360 -60 -386 0 -63 43 -129 102 -158 42 -20 59 -21 295 -21 l250 0
16 93 c28 154 53 137 -209 137 l-226 0 6 28 c3 15 28 155 56 312 28 157 53
297 56 313 l6 27 109 0 c105 0 109 -1 109 -21 0 -12 -16 -111 -35 -220 -19
-110 -35 -203 -35 -209 0 -6 44 -10 113 -10 l113 0 44 247 c49 279 48 308 -13
372 -57 60 -66 61 -393 61 -278 0 -296 -1 -289 -17z"/>
<path d="M7175 2983 c28 -63 44 -124 45 -161 0 -34 -127 -790 -156 -924 l-6
-28 115 0 115 0 6 28 c3 15 19 106 36 202 17 96 33 185 35 198 5 22 8 22 155
22 136 0 150 -2 150 -17 0 -10 -16 -106 -35 -213 -19 -107 -35 -201 -35 -207
0 -10 29 -13 113 -13 l113 0 97 558 c54 306 98 560 97 565 0 4 -51 7 -113 7
l-113 0 -39 -225 -39 -225 -153 0 c-84 0 -153 1 -153 3 0 6 70 403 75 425 l5
22 -161 0 c-150 0 -161 -1 -154 -17z"/>
<path d="M8145 2983 c28 -63 44 -124 45 -161 0 -34 -127 -790 -156 -924 l-6
-28 115 0 115 0 6 28 c3 15 15 81 26 147 12 66 23 128 26 138 5 15 19 17 115
17 81 0 109 -3 109 -12 0 -7 -11 -78 -25 -158 -14 -80 -25 -148 -25 -152 0 -5
52 -8 115 -8 64 0 115 4 115 9 0 5 34 201 75 435 41 234 75 445 75 468 0 54
-28 114 -71 155 -64 60 -80 63 -385 63 -259 0 -276 -1 -269 -17z m494 -230 c0
-16 -12 -95 -27 -178 l-27 -150 -113 -3 c-78 -2 -112 1 -112 9 0 10 43 260 56
322 l6 27 109 0 109 0 -1 -27z"/>
<path d="M9025 2983 c28 -63 44 -124 45 -161 0 -34 -127 -790 -156 -924 l-6
-28 115 0 115 0 6 28 c3 15 46 259 96 542 49 283 92 525 95 538 l5 22 -161 0
c-150 0 -161 -1 -154 -17z"/>
<path d="M9465 2983 c28 -63 44 -124 45 -161 0 -34 -127 -790 -156 -924 l-6
-28 115 0 115 0 6 28 c3 15 37 207 76 427 39 220 72 410 75 423 5 21 9 22 115
22 93 0 110 -2 110 -16 0 -8 -34 -207 -75 -442 -41 -235 -75 -430 -75 -434 0
-5 52 -8 115 -8 63 0 115 3 115 8 0 4 37 217 82 473 90 515 90 509 31 580 -55
65 -75 69 -402 69 -275 0 -293 -1 -286 -17z"/>
<path d="M10345 2983 c28 -63 44 -124 45 -161 0 -34 -127 -790 -156 -924 l-6
-28 115 0 115 0 6 28 c3 15 46 259 96 542 49 283 92 525 95 538 l5 22 -161 0
c-150 0 -161 -1 -154 -17z"/>
<path d="M10785 2983 c28 -63 44 -124 45 -161 0 -34 -127 -790 -156 -924 l-6
-28 115 0 115 0 6 28 c3 15 37 207 76 427 39 220 72 410 75 423 5 21 9 22 115
22 93 0 110 -2 110 -16 0 -8 -34 -207 -75 -442 -41 -235 -75 -430 -75 -434 0
-5 52 -8 115 -8 63 0 115 3 115 8 0 4 37 217 82 473 90 515 90 509 31 580 -55
65 -75 69 -402 69 -275 0 -293 -1 -286 -17z"/>
<path d="M11675 2983 c28 -64 44 -124 45 -163 0 -25 -27 -198 -60 -385 -33
-187 -60 -360 -60 -386 0 -63 43 -129 102 -158 42 -20 59 -21 296 -21 139 0
252 3 252 8 0 4 25 152 57 329 31 178 53 326 49 330 -4 5 -55 8 -114 8 l-106
0 -27 -150 c-14 -82 -32 -183 -39 -222 l-12 -73 -115 0 -115 0 6 28 c3 15 28
155 56 312 28 157 53 297 56 313 l6 27 227 0 228 0 19 110 20 110 -389 0
c-367 0 -389 -1 -382 -17z"/>
<path d="M10245 1413 c28 -63 44 -124 45 -161 0 -34 -127 -790 -156 -925 l-6
-27 115 0 115 0 6 27 c3 16 46 260 96 543 49 283 92 525 95 538 l5 22 -161 0
c-150 0 -161 -1 -154 -17z"/>
<path d="M10675 1413 c28 -63 44 -124 45 -161 0 -34 -127 -790 -156 -925 l-6
-27 115 0 115 0 6 27 c3 16 37 208 76 428 39 220 72 410 75 423 5 21 9 22 115
22 93 0 110 -2 110 -16 0 -8 -34 -207 -75 -442 -41 -235 -75 -430 -75 -434 0
-5 52 -8 115 -8 63 0 115 3 115 8 0 4 37 217 82 473 90 515 90 509 31 580 -55
65 -75 69 -402 69 -275 0 -293 -1 -286 -17z"/>
<path d="M11565 1413 c28 -64 44 -124 45 -163 0 -25 -27 -198 -60 -385 -33
-187 -60 -360 -60 -386 0 -63 43 -129 102 -158 42 -20 59 -21 295 -21 l250 0
16 93 c28 154 53 137 -209 137 l-226 0 6 28 c3 15 28 155 56 312 28 157 53
297 56 313 l6 27 109 0 c105 0 109 -1 109 -21 0 -12 -16 -111 -35 -220 -19
-110 -35 -203 -35 -209 0 -6 44 -10 113 -10 l113 0 44 247 c49 279 48 308 -13
372 -57 60 -66 61 -393 61 -278 0 -296 -1 -289 -17z"/>
<path d="M12456 508 c-8 -35 -36 -194 -36 -201 0 -4 51 -7 114 -7 l114 0 12
73 c7 39 15 89 20 109 4 20 5 39 2 43 -3 3 -54 5 -113 5 -105 0 -109 -1 -113
-22z"/>
</g>
</svg>
